<mxfile host="65bd71144e">
    <diagram id="Tq2T7QQzG8K6yVUOl3Sg" name="第 1 页">
        <mxGraphModel dx="1124" dy="605" grid="1" gridSize="10" guides="1" tooltips="1" connect="1" arrows="1" fold="1" page="1" pageScale="1" pageWidth="827" pageHeight="1169" math="0" shadow="0">
            <root>
                <mxCell id="0"/>
                <mxCell id="1" parent="0"/>
                <mxCell id="2" value="0,1,2,3,4,5,6,7" style="whiteSpace=wrap;html=1;" vertex="1" parent="1">
                    <mxGeometry x="317" y="50" width="206" height="60" as="geometry"/>
                </mxCell>
                <mxCell id="3" value="0,2,4,6" style="whiteSpace=wrap;html=1;" vertex="1" parent="1">
                    <mxGeometry x="196" y="130" width="146" height="60" as="geometry"/>
                </mxCell>
                <mxCell id="4" value="1,3,5,7" style="whiteSpace=wrap;html=1;" vertex="1" parent="1">
                    <mxGeometry x="496" y="130" width="146" height="60" as="geometry"/>
                </mxCell>
                <mxCell id="5" value="0,4" style="whiteSpace=wrap;html=1;" vertex="1" parent="1">
                    <mxGeometry x="136" y="210" width="115" height="60" as="geometry"/>
                </mxCell>
                <mxCell id="6" value="2,6" style="whiteSpace=wrap;html=1;" vertex="1" parent="1">
                    <mxGeometry x="266" y="210" width="115" height="60" as="geometry"/>
                </mxCell>
                <mxCell id="7" value="1,5" style="whiteSpace=wrap;html=1;" vertex="1" parent="1">
                    <mxGeometry x="446.5" y="210" width="115" height="60" as="geometry"/>
                </mxCell>
                <mxCell id="8" value="3,7" style="whiteSpace=wrap;html=1;" vertex="1" parent="1">
                    <mxGeometry x="576.5" y="210" width="115" height="60" as="geometry"/>
                </mxCell>
                <mxCell id="9" value="0" style="whiteSpace=wrap;html=1;" vertex="1" parent="1">
                    <mxGeometry x="126" y="280" width="55" height="60" as="geometry"/>
                </mxCell>
                <mxCell id="10" value="4" style="whiteSpace=wrap;html=1;" vertex="1" parent="1">
                    <mxGeometry x="196" y="280" width="55" height="60" as="geometry"/>
                </mxCell>
                <mxCell id="11" value="2" style="whiteSpace=wrap;html=1;" vertex="1" parent="1">
                    <mxGeometry x="266" y="280" width="55" height="60" as="geometry"/>
                </mxCell>
                <mxCell id="12" value="6" style="whiteSpace=wrap;html=1;" vertex="1" parent="1">
                    <mxGeometry x="336" y="280" width="55" height="60" as="geometry"/>
                </mxCell>
                <mxCell id="13" value="0" style="whiteSpace=wrap;html=1;" vertex="1" parent="1">
                    <mxGeometry x="126" y="280" width="55" height="60" as="geometry"/>
                </mxCell>
                <mxCell id="14" value="4" style="whiteSpace=wrap;html=1;" vertex="1" parent="1">
                    <mxGeometry x="196" y="280" width="55" height="60" as="geometry"/>
                </mxCell>
                <mxCell id="15" value="0" style="whiteSpace=wrap;html=1;" vertex="1" parent="1">
                    <mxGeometry x="126" y="280" width="55" height="60" as="geometry"/>
                </mxCell>
                <mxCell id="16" value="4" style="whiteSpace=wrap;html=1;" vertex="1" parent="1">
                    <mxGeometry x="196" y="280" width="55" height="60" as="geometry"/>
                </mxCell>
                <mxCell id="17" value="0" style="whiteSpace=wrap;html=1;" vertex="1" parent="1">
                    <mxGeometry x="126" y="280" width="55" height="60" as="geometry"/>
                </mxCell>
                <mxCell id="18" value="4" style="whiteSpace=wrap;html=1;" vertex="1" parent="1">
                    <mxGeometry x="196" y="280" width="55" height="60" as="geometry"/>
                </mxCell>
                <mxCell id="19" value="2" style="whiteSpace=wrap;html=1;" vertex="1" parent="1">
                    <mxGeometry x="266" y="280" width="55" height="60" as="geometry"/>
                </mxCell>
                <mxCell id="20" value="0" style="whiteSpace=wrap;html=1;" vertex="1" parent="1">
                    <mxGeometry x="126" y="280" width="55" height="60" as="geometry"/>
                </mxCell>
                <mxCell id="21" value="4" style="whiteSpace=wrap;html=1;" vertex="1" parent="1">
                    <mxGeometry x="196" y="280" width="55" height="60" as="geometry"/>
                </mxCell>
                <mxCell id="22" value="2" style="whiteSpace=wrap;html=1;" vertex="1" parent="1">
                    <mxGeometry x="266" y="280" width="55" height="60" as="geometry"/>
                </mxCell>
                <mxCell id="23" value="7" style="whiteSpace=wrap;html=1;" vertex="1" parent="1">
                    <mxGeometry x="646.5" y="280" width="55" height="60" as="geometry"/>
                </mxCell>
                <mxCell id="24" value="1" style="whiteSpace=wrap;html=1;" vertex="1" parent="1">
                    <mxGeometry x="436.5" y="280" width="55" height="60" as="geometry"/>
                </mxCell>
                <mxCell id="25" value="5" style="whiteSpace=wrap;html=1;" vertex="1" parent="1">
                    <mxGeometry x="506.5" y="280" width="55" height="60" as="geometry"/>
                </mxCell>
                <mxCell id="26" value="3" style="whiteSpace=wrap;html=1;" vertex="1" parent="1">
                    <mxGeometry x="576.5" y="280" width="55" height="60" as="geometry"/>
                </mxCell>
            </root>
        </mxGraphModel>
    </diagram>
</mxfile>